<svg xmlns="http://www.w3.org/2000/svg" xmlns:xlink="http://www.w3.org/1999/xlink" viewBox="0 0 1303 749"><defs><style>.cls-1{fill:none;}.cls-2{fill:#efefef;}.cls-3{fill:#f9425a;}.cls-4{clip-path:url(#clip-path);}</style><clipPath id="clip-path"><rect class="cls-1" width="1303" height="749" rx="87.5"/></clipPath></defs><g id="Layer_2" data-name="Layer 2"><g id="Group_11" data-name="Group 11"><rect id="Rectangle_60" data-name="Rectangle 60" class="cls-2" width="1303" height="749" rx="87.5"/><path id="Intersection_1" data-name="Intersection 1" class="cls-3" d="M459.3,749V494.7H417.7V455.5H551.3v39.2h-42V749Zm-98.8,0-38-165.9h-2V749H279.7V455.5h39.6l37.6,155.6h1.6V455.5h40.8V749Zm-148.18,0-3-32.3h-34l-3,32.3H131l36.3-293.5h56L262.69,749ZM178.9,677.1h25.6L192.9,523.9h-1.6ZM87.5,749a88.07,88.07,0,0,1-18-1.86L50.9,622.3l-8.8,23.6v90.42A87.46,87.46,0,0,1,0,661.5v-206H42.1V587.1h2l32-131.6h47.2L86.1,576.71,121.55,749Z"/><g class="cls-4"><g id="Mask_Group_4" data-name="Mask Group 4"><image width="750" height="1273" transform="translate(557.09) scale(0.99)" xlink:href="../Materiale%20fra%20GROB/Kea%20Betty%20B.jpg"/></g></g></g></g></svg>