<svg id="Layer_1" data-name="Layer 1" xmlns="http://www.w3.org/2000/svg" xmlns:xlink="http://www.w3.org/1999/xlink" viewBox="0 0 920 1422"><defs><style>.cls-1{fill:none;}.cls-2{clip-path:url(#clip-path);}.cls-3{fill:#efefef;}.cls-4{fill:#f9425a;}.cls-5{clip-path:url(#clip-path-2);}</style><clipPath id="clip-path"><rect class="cls-1" width="920" height="1422"/></clipPath><clipPath id="clip-path-2"><rect class="cls-1" x="85.5" y="78.56" width="749" height="1303" rx="87.5"/></clipPath></defs><g class="cls-2"><g id="Artboard_39" data-name="Artboard 39"><g id="Group_12" data-name="Group 12"><rect id="Rectangle_60" data-name="Rectangle 60" class="cls-3" x="85.5" y="78.56" width="749" height="1303" rx="87.5"/><path id="Intersection_1" data-name="Intersection 1" class="cls-4" d="M85.5,537.86H339.8v-41.6H379v133.6H339.8v-42H85.5Zm0-98.8,165.9-38v-2H85.5v-40.8H379v39.6l-155.6,37.6v1.6H379v40.8H85.5Zm0-148.17,32.3-3v-34l-32.3-3V209.56L379,245.86v56L85.5,341.25Zm71.9-33.42v25.59l153.2-11.59v-1.6ZM85.5,166.06a88.14,88.14,0,0,1,1.86-18L212.2,129.47l-23.6-8.8H98.19A87.44,87.44,0,0,1,173,78.57H379v42.1H247.4v2l131.6,32v47.2l-121.2-37.2L85.5,200.11Z"/><g class="cls-5"><g id="Mask_Group_4" data-name="Mask Group 4"><image width="750" height="1273" transform="translate(381.88 97.41)" xlink:href="../Materiale%20fra%20GROB/Kea%20Betty%20B.jpg"/></g></g></g></g></g></svg>