<svg xmlns="http://www.w3.org/2000/svg" viewBox="0 0 48 25"><defs><style>.cls-1{fill:#fd673a;}</style></defs><g id="Layer_2" data-name="Layer 2"><g id="Layer_3" data-name="Layer 3"><polyline class="cls-1" points="1.05 0.44 11.46 0.46 11.46 9.34 14.36 2.53 15.74 2.53 13.76 7.28 15.55 13.69 15.84 14.69 14.31 14.69 14.06 13.69 12.88 9.03 11.46 11.58 11.46 14.69 9.96 14.69 9.96 1.44 1.05 1.44"/><path class="cls-1" d="M22,13.69,20.08,2.53H18.32l-2,11.16-.18,1h1.28l.16-1,.15-1h2.65l.17,1,.14,1h1.48ZM18,11.52l1.1-7.1h.06l1.15,7.1Z"/><polygon class="cls-1" points="28.75 2.53 28.75 14.69 27.54 14.69 27.18 13.69 24.55 6.11 24.46 6.11 24.46 14.69 23.2 14.69 23.2 2.53 24.64 2.53 27.43 10.42 27.48 10.42 27.48 2.53 28.75 2.53"/><polygon class="cls-1" points="46.95 19.18 46.95 24.56 45.95 24.56 45.95 20.18 38.06 20.18 38.06 14.69 31.84 14.69 31.84 3.7 29.7 3.7 29.7 2.53 35.42 2.53 35.42 3.7 33.3 3.7 33.3 13.69 39.06 13.69 39.06 19.18 46.95 19.18"/></g></g></svg>