<?xml version="1.0" encoding="UTF-8"?><svg id="a" xmlns="http://www.w3.org/2000/svg" xmlns:xlink="http://www.w3.org/1999/xlink" viewBox="0 0 252 168.25"><defs><style>.b{letter-spacing:0em;}.c{letter-spacing:-.03em;}.d{letter-spacing:-.01em;}.e,.f{fill:#ed6842;}.g{fill:#9d9d9c;}.h{fill:#c6c6c6;}.i{fill:#431c4a;}.j{letter-spacing:-.03em;}.k{fill:#6e56a0;font-size:12px;}.k,.f,.l{font-family:Balboa-Condensed, Balboa;}.m{letter-spacing:0em;}.n{letter-spacing:0em;}.o{letter-spacing:0em;}.f{font-size:35.99px;}.p{fill:#fff;stroke:#1d1d1b;stroke-miterlimit:10;}.l{fill:#575756;font-size:8.37px;}.q{letter-spacing:0em;}.r{letter-spacing:-.02em;}.s{letter-spacing:-.02em;}</style></defs><rect class="p" x="65.24" y="0" width="0" height="8.76"/><rect class="i" y="24.25" width="252" height="144" rx="15.03" ry="15.03"/><g><polyline class="e" points="176.98 130.26 191.34 130.29 191.34 142.54 195.34 133.15 197.24 133.15 194.51 139.7 196.98 148.54 197.38 149.92 195.27 149.92 194.93 148.54 193.3 142.11 191.34 145.63 191.34 149.92 189.27 149.92 189.27 131.64 176.98 131.64"/><path class="e" d="M205.88,148.54l-2.65-15.4h-2.43l-2.76,15.4-.25,1.38h1.77l.22-1.38,.21-1.38h3.66l.23,1.38,.19,1.38h2.04l-.23-1.38Zm-5.52-2.99l1.52-9.79h.08l1.59,9.79h-3.19Z"/><polygon class="e" points="215.19 133.15 215.19 149.92 213.52 149.92 213.03 148.54 209.4 138.08 209.27 138.08 209.27 149.92 207.54 149.92 207.54 133.15 209.52 133.15 213.37 144.03 213.44 144.03 213.44 133.15 215.19 133.15"/><polygon class="e" points="240.3 156.11 240.3 163.54 238.92 163.54 238.92 157.49 228.04 157.49 228.04 149.92 219.45 149.92 219.45 134.76 216.5 134.76 216.5 133.15 224.39 133.15 224.39 134.76 221.47 134.76 221.47 148.54 229.41 148.54 229.41 156.11 240.3 156.11"/></g><rect class="h" x="175.92" y="35.66" width="68.37" height="79.58" rx="12" ry="12"/><ellipse class="g" cx="210.1" cy="63.57" rx="15.84" ry="17.12"/><path class="g" d="M185.78,103.43c0-10.17,10.89-18.41,24.32-18.41s24.32,8.24,24.32,18.41"/><image transform="translate(93.97 79.75) scale(.1)" xlink:href="../../Skærmbillede 2022-03-21 kl. 11.06.46.png"/><text class="f" transform="translate(9.88 60.65)"><tspan x="0" y="0">MEDLEMS</tspan><tspan class="s" x="94.3" y="0">K</tspan><tspan x="107.19" y="0">OR</tspan><tspan class="o" x="134.15" y="0">T</tspan></text><text class="k" transform="translate(11.51 89.03)"><tspan x="0" y="0">FORN</tspan><tspan class="c" x="17.08" y="0">A</tspan><tspan class="m" x="20.87" y="0">VN</tspan><tspan x="0" y="14.4">EFTERN</tspan><tspan class="c" x="24.3" y="14.4">A</tspan><tspan class="m" x="28.09" y="14.4">VN </tspan><tspan x="0" y="28.8">ALDER</tspan><tspan x="0" y="43.2">MEDLEMSNUMMER</tspan></text><text class="l" transform="translate(79.75 158.28) scale(.84 1)"><tspan class="d" x="0" y="0">G</tspan><tspan class="q" x="3.05" y="0">YLDI</tspan><tspan class="r" x="13.43" y="0">G</tspan><tspan class="n" x="16.47" y="0">T </tspan><tspan x="20.49" y="0">TIL/</tspan><tspan class="n" x="30.91" y="0"> </tspan><tspan class="j" x="31.97" y="0">V</tspan><tspan class="q" x="34.67" y="0">ALID UNTI</tspan><tspan class="b" x="56.85" y="0">L </tspan><tspan x="60.44" y="0">XX/XX-20X</tspan><tspan class="b" x="86.93" y="0">X</tspan></text></svg>