<?xml version="1.0" encoding="UTF-8"?><svg id="a" xmlns="http://www.w3.org/2000/svg" xmlns:xlink="http://www.w3.org/1999/xlink" viewBox="0 0 252 168.25"><defs><style>.b{fill:#ed6842;}.c{fill:#fff;}.d{fill:#9d9d9c;}.e{fill:#c6c6c6;}.f{fill:#431c4a;}.g{fill:#1d1d1b;}.h{fill:#6e56a0;}.i{fill:#575756;}</style></defs><g><rect class="c" x="65.24" y="0" width="0" height="8.76"/><rect class="g" x="64.74" width="1" height="8.77"/></g><rect class="f" y="24.25" width="252" height="144" rx="15.03" ry="15.03"/><g><polyline class="b" points="176.98 130.26 191.34 130.29 191.34 142.54 195.34 133.15 197.24 133.15 194.51 139.7 196.98 148.54 197.38 149.92 195.27 149.92 194.93 148.54 193.3 142.11 191.34 145.63 191.34 149.92 189.27 149.92 189.27 131.64 176.98 131.64"/><path class="b" d="M205.88,148.54l-2.65-15.4h-2.43l-2.76,15.4-.25,1.38h1.77l.22-1.38,.21-1.38h3.66l.23,1.38,.19,1.38h2.04l-.23-1.38Zm-5.52-2.99l1.52-9.79h.08l1.59,9.79h-3.19Z"/><polygon class="b" points="215.19 133.15 215.19 149.92 213.52 149.92 213.03 148.54 209.4 138.08 209.27 138.08 209.27 149.92 207.54 149.92 207.54 133.15 209.52 133.15 213.37 144.03 213.44 144.03 213.44 133.15 215.19 133.15"/><polygon class="b" points="240.3 156.11 240.3 163.54 238.92 163.54 238.92 157.49 228.04 157.49 228.04 149.92 219.45 149.92 219.45 134.76 216.5 134.76 216.5 133.15 224.39 133.15 224.39 134.76 221.47 134.76 221.47 148.54 229.41 148.54 229.41 156.11 240.3 156.11"/></g><rect class="e" x="175.92" y="35.66" width="68.37" height="79.58" rx="12" ry="12"/><ellipse class="d" cx="210.1" cy="63.57" rx="15.84" ry="17.12"/><path class="d" d="M185.78,103.43c0-10.17,10.89-18.41,24.32-18.41s24.32,8.24,24.32,18.41"/><image transform="translate(93.97 79.75) scale(.1)" xlink:href="../../Skærmbillede 2022-03-21 kl. 11.06.46.png"/><g><path class="b" d="M26.54,60.65h-4.32v-16.7h-.18l-2.34,16.7h-2.34l-2.41-16.7h-.18v16.7h-3.67v-27.36h5.26l2.2,17.31h.18l2.7-17.31h5.11v27.36Z"/><path class="b" d="M38.42,60.65h-9.43v-27.36h9.4v3.53h-4.9v7.74h4.07v3.6h-4.07v8.96h4.93v3.53Z"/><path class="b" d="M51.77,55c0,4.28-2.16,5.65-5.87,5.65h-5.83v-27.36h5.72c3.92,0,5.98,1.48,5.98,6.12v15.59Zm-4.5-16.09c0-1.62-.5-2.09-1.62-2.09h-1.08v20.3h1.01c1.26,0,1.69-.58,1.69-1.91v-16.31Z"/><path class="b" d="M63.29,60.65h-9.43v-27.36h4.5v23.79h4.93v3.56Z"/><path class="b" d="M74.38,60.65h-9.43v-27.36h9.4v3.53h-4.9v7.74h4.07v3.6h-4.07v8.96h4.93v3.53Z"/><path class="b" d="M91.48,60.65h-4.32v-16.7h-.18l-2.34,16.7h-2.34l-2.41-16.7h-.18v16.7h-3.67v-27.36h5.26l2.2,17.31h.18l2.7-17.31h5.11v27.36Z"/><path class="b" d="M103.68,54.71c0,4.36-2.02,6.37-5.44,6.37-3.6,0-5.04-2.16-5.04-6.12,0-1.66,.18-2.95,.32-3.71l3.28,.29c-.14,.83-.25,2.05-.25,3.02,0,2.3,.36,3.1,1.4,3.1,.94,0,1.26-.76,1.26-2.45v-.76c0-2.09-.47-4-2.84-6.88-2.3-2.77-3.17-5-3.17-8.13v-.43c0-3.56,1.3-6.19,5.29-6.19s4.97,2.38,4.97,6.12c0,1.48-.11,2.81-.25,3.67l-3.35-.29c.14-.79,.22-1.8,.22-2.99,0-2.38-.32-3.13-1.26-3.13s-1.19,.72-1.19,2.3v.58c0,1.62,.5,3.31,2.23,5.51,2.38,3.02,3.82,6.08,3.82,9.58v.54Z"/><path class="b" d="M117.25,60.65h-4.72l-1.84-12.35-.79,2.12v10.22h-4.5v-27.36h4.5v11.84h.18l2.88-11.84h4.25l-3.35,10.91,3.38,16.45Z"/><path class="b" d="M129.63,55.11c0,4.43-2.63,5.98-5.8,5.98s-5.9-1.66-5.9-5.98v-16.31c0-4.39,2.7-5.98,5.9-5.98s5.8,1.55,5.8,5.98v16.31Zm-4.5-17.24c0-1.15-.65-1.66-1.33-1.66-.83,0-1.37,.5-1.37,1.66v18.14c0,1.12,.5,1.66,1.4,1.66,.83,0,1.3-.54,1.3-1.62v-18.18Z"/><path class="b" d="M139.89,47.51v.14c2.56,.65,2.99,2.59,2.99,6.19v2.09c0,3.2,.11,3.92,.4,4.72h-4.43c-.18-.29-.29-.72-.32-1.44-.07-1.66-.07-3.28-.11-5.08-.07-4.07-.61-4.72-1.37-4.72h-.83v11.23h-4.5v-27.36h5.83c3.74,0,5.76,2.09,5.76,7.13,0,4.1-.79,6.05-3.42,7.09Zm-2.88-10.69h-.79v9.04h.76c1.26,0,1.94-1.04,1.94-4.72s-.72-4.32-1.91-4.32Z"/><path class="b" d="M156.48,36.82h-3.78v23.83h-4.5v-23.83h-3.74v-3.53h12.02v3.53Z"/></g><g><path class="h" d="M15.05,81.09h-1.63v2.85h1.36v1.16h-1.36v3.92h-1.5v-9.11h3.13v1.18Z"/><path class="h" d="M19.38,87.18c0,1.48-.88,1.99-1.93,1.99s-1.97-.55-1.97-1.99v-5.43c0-1.46,.9-1.99,1.97-1.99s1.93,.52,1.93,1.99v5.43Zm-1.5-5.74c0-.38-.22-.55-.44-.55-.28,0-.46,.17-.46,.55v6.04c0,.37,.17,.55,.47,.55,.28,0,.43-.18,.43-.54v-6.06Z"/><path class="h" d="M22.8,84.65v.05c.85,.22,1,.86,1,2.06v.7c0,1.07,.04,1.31,.13,1.57h-1.48c-.06-.1-.1-.24-.11-.48-.02-.55-.02-1.09-.04-1.69-.02-1.35-.2-1.57-.46-1.57h-.28v3.74h-1.5v-9.11h1.94c1.25,0,1.92,.7,1.92,2.37,0,1.37-.26,2.01-1.14,2.36Zm-.96-3.56h-.26v3.01h.25c.42,0,.65-.35,.65-1.57s-.24-1.44-.64-1.44Z"/><path class="h" d="M28.17,89.03h-1.09l-1.21-5.29h-.06v5.29h-1.22v-9.11h1.19l1.13,4.67h.05v-4.67h1.22v9.11Z"/><path class="h" d="M32.67,89.03h-1.52l-.12-1.28h-1.02l-.12,1.28h-1.25l1.13-9.11h1.68l1.22,9.11Zm-1.79-2.47l-.35-4.59h-.05l-.37,4.59h.77Z"/><path class="h" d="M36.53,79.91l-1.13,9.11h-1.8l-1.15-9.11h1.55l.53,6.86h.06l.56-6.86h1.38Z"/><path class="h" d="M40.59,89.03h-1.09l-1.21-5.29h-.06v5.29h-1.22v-9.11h1.19l1.13,4.67h.05v-4.67h1.22v9.11Z"/><path class="h" d="M15.06,103.43h-3.14v-9.12h3.13v1.18h-1.63v2.58h1.36v1.2h-1.36v2.99h1.64v1.18Z"/><path class="h" d="M18.74,95.49h-1.63v2.85h1.36v1.16h-1.36v3.92h-1.5v-9.12h3.13v1.18Z"/><path class="h" d="M23.04,95.49h-1.26v7.94h-1.5v-7.94h-1.25v-1.18h4.01v1.18Z"/><path class="h" d="M26.75,103.43h-3.14v-9.12h3.13v1.18h-1.63v2.58h1.36v1.2h-1.36v2.99h1.64v1.18Z"/><path class="h" d="M30.02,99.05v.05c.85,.22,1,.86,1,2.06v.7c0,1.07,.04,1.31,.13,1.57h-1.48c-.06-.1-.1-.24-.11-.48-.02-.55-.02-1.09-.04-1.69-.02-1.36-.2-1.57-.46-1.57h-.28v3.74h-1.5v-9.12h1.94c1.25,0,1.92,.7,1.92,2.38,0,1.37-.26,2.02-1.14,2.36Zm-.96-3.56h-.26v3.01h.25c.42,0,.65-.35,.65-1.57s-.24-1.44-.64-1.44Z"/><path class="h" d="M35.4,103.43h-1.09l-1.21-5.29h-.06v5.29h-1.22v-9.12h1.19l1.13,4.67h.05v-4.67h1.22v9.12Z"/><path class="h" d="M39.9,103.43h-1.52l-.12-1.28h-1.02l-.12,1.28h-1.25l1.13-9.12h1.68l1.22,9.12Zm-1.79-2.47l-.35-4.59h-.05l-.37,4.59h.77Z"/><path class="h" d="M43.75,94.31l-1.13,9.12h-1.8l-1.15-9.12h1.55l.53,6.86h.06l.56-6.86h1.38Z"/><path class="h" d="M47.82,103.43h-1.09l-1.21-5.29h-.06v5.29h-1.22v-9.12h1.19l1.13,4.67h.05v-4.67h1.22v9.12Z"/><path class="h" d="M15.6,117.83h-1.52l-.12-1.28h-1.02l-.12,1.28h-1.25l1.13-9.11h1.68l1.22,9.11Zm-1.79-2.47l-.35-4.59h-.05l-.37,4.59h.77Z"/><path class="h" d="M19.21,117.83h-3.14v-9.11h1.5v7.93h1.64v1.19Z"/><path class="h" d="M23.66,115.95c0,1.43-.72,1.88-1.96,1.88h-1.94v-9.11h1.91c1.31,0,1.99,.49,1.99,2.04v5.19Zm-1.5-5.36c0-.54-.17-.7-.54-.7h-.36v6.76h.34c.42,0,.56-.19,.56-.64v-5.43Z"/><path class="h" d="M27.5,117.83h-3.14v-9.11h3.13v1.17h-1.63v2.58h1.36v1.2h-1.36v2.99h1.64v1.17Z"/><path class="h" d="M30.78,113.45v.05c.85,.22,1,.86,1,2.06v.7c0,1.07,.04,1.31,.13,1.57h-1.48c-.06-.1-.1-.24-.11-.48-.02-.55-.02-1.09-.04-1.69-.02-1.35-.2-1.57-.46-1.57h-.28v3.74h-1.5v-9.11h1.94c1.25,0,1.92,.7,1.92,2.37,0,1.37-.26,2.01-1.14,2.36Zm-.96-3.56h-.26v3.01h.25c.42,0,.65-.35,.65-1.57s-.24-1.44-.64-1.44Z"/><path class="h" d="M17.06,132.23h-1.44v-5.56h-.06l-.78,5.56h-.78l-.8-5.56h-.06v5.56h-1.22v-9.11h1.75l.73,5.77h.06l.9-5.77h1.7v9.11Z"/><path class="h" d="M21.02,132.23h-3.14v-9.11h3.13v1.17h-1.63v2.58h1.36v1.2h-1.36v2.99h1.64v1.17Z"/><path class="h" d="M25.47,130.35c0,1.43-.72,1.88-1.96,1.88h-1.94v-9.11h1.91c1.31,0,1.99,.49,1.99,2.04v5.19Zm-1.5-5.36c0-.54-.17-.7-.54-.7h-.36v6.76h.34c.42,0,.56-.19,.56-.64v-5.43Z"/><path class="h" d="M29.31,132.23h-3.14v-9.11h1.5v7.93h1.64v1.19Z"/><path class="h" d="M33.01,132.23h-3.14v-9.11h3.13v1.17h-1.63v2.58h1.36v1.2h-1.36v2.99h1.64v1.17Z"/><path class="h" d="M38.71,132.23h-1.44v-5.56h-.06l-.78,5.56h-.78l-.8-5.56h-.06v5.56h-1.22v-9.11h1.75l.73,5.77h.06l.9-5.77h1.7v9.11Z"/><path class="h" d="M42.78,130.25c0,1.45-.67,2.12-1.81,2.12-1.2,0-1.68-.72-1.68-2.04,0-.55,.06-.98,.11-1.24l1.09,.1c-.05,.28-.08,.68-.08,1.01,0,.77,.12,1.03,.47,1.03,.31,0,.42-.25,.42-.82v-.25c0-.7-.16-1.33-.95-2.29-.77-.92-1.06-1.67-1.06-2.71v-.14c0-1.19,.43-2.06,1.76-2.06s1.65,.79,1.65,2.04c0,.49-.04,.94-.08,1.22l-1.12-.1c.05-.26,.07-.6,.07-1,0-.79-.11-1.04-.42-1.04s-.4,.24-.4,.77v.19c0,.54,.17,1.1,.74,1.83,.79,1.01,1.27,2.03,1.27,3.19v.18Z"/><path class="h" d="M46.94,132.23h-1.09l-1.21-5.29h-.06v5.29h-1.22v-9.11h1.19l1.13,4.67h.05v-4.67h1.22v9.11Z"/><path class="h" d="M51.45,130.49c0,1.25-.71,1.88-1.86,1.88s-1.91-.64-1.91-1.87v-7.39h1.49v7.5c0,.37,.19,.58,.5,.58s.48-.23,.48-.59v-7.48h1.29v7.38Z"/><path class="h" d="M57.34,132.23h-1.44v-5.56h-.06l-.78,5.56h-.78l-.8-5.56h-.06v5.56h-1.22v-9.11h1.75l.73,5.77h.06l.9-5.77h1.7v9.11Z"/><path class="h" d="M63.31,132.23h-1.44v-5.56h-.06l-.78,5.56h-.78l-.8-5.56h-.06v5.56h-1.22v-9.11h1.75l.73,5.77h.06l.9-5.77h1.7v9.11Z"/><path class="h" d="M67.27,132.23h-3.14v-9.11h3.13v1.17h-1.63v2.58h1.36v1.2h-1.36v2.99h1.64v1.17Z"/><path class="h" d="M70.55,127.85v.05c.85,.22,1,.86,1,2.06v.7c0,1.07,.04,1.31,.13,1.57h-1.48c-.06-.1-.1-.24-.11-.48-.02-.55-.02-1.09-.04-1.69-.02-1.35-.2-1.57-.46-1.57h-.28v3.74h-1.5v-9.11h1.94c1.25,0,1.92,.7,1.92,2.37,0,1.37-.26,2.01-1.14,2.36Zm-.96-3.56h-.26v3.01h.25c.42,0,.65-.35,.65-1.57s-.24-1.44-.64-1.44Z"/></g><g><path class="i" d="M82.18,158.28h-.32l-.16-.56h-.03c-.15,.35-.38,.66-.78,.66-.57,0-.97-.41-.97-1.25v-3.91c0-.94,.44-1.4,1.12-1.4,.63,0,1.02,.28,1.02,1.41,0,.37-.02,.71-.04,.87l-.66-.08c.02-.13,.04-.43,.04-.66,0-.61-.11-.75-.3-.75-.23,0-.3,.16-.3,.46v4.15c0,.25,.08,.4,.29,.4,.17,0,.25-.15,.25-.4v-2.15h.84v3.22Z"/><path class="i" d="M84.79,151.93l-.78,3.91v2.45h-.88v-2.46l-.78-3.9h.92l.32,2.77h.04l.35-2.77h.81Z"/><path class="i" d="M86.92,158.28h-1.85v-6.36h.88v5.53h.97v.83Z"/><path class="i" d="M89.54,156.97c0,1-.42,1.31-1.15,1.31h-1.14v-6.36h1.12c.77,0,1.17,.34,1.17,1.42v3.62Zm-.88-3.74c0-.38-.1-.48-.32-.48h-.21v4.72h.2c.25,0,.33-.13,.33-.44v-3.79Z"/><path class="i" d="M90.83,158.28h-.88v-6.36h.88v6.36Z"/><path class="i" d="M93.51,158.28h-.32l-.16-.56h-.03c-.15,.35-.38,.66-.78,.66-.57,0-.97-.41-.97-1.25v-3.91c0-.94,.44-1.4,1.12-1.4,.63,0,1.02,.28,1.02,1.41,0,.37-.02,.71-.04,.87l-.66-.08c.02-.13,.04-.43,.04-.66,0-.61-.11-.75-.3-.75-.23,0-.3,.16-.3,.46v4.15c0,.25,.08,.4,.29,.4,.17,0,.25-.15,.25-.4v-2.15h.84v3.22Z"/><path class="i" d="M96.08,152.75h-.74v5.54h-.88v-5.54h-.73v-.82h2.35v.82Z"/><path class="i" d="M99.47,152.75h-.74v5.54h-.88v-5.54h-.73v-.82h2.35v.82Z"/><path class="i" d="M100.68,158.28h-.88v-6.36h.88v6.36Z"/><path class="i" d="M103.01,158.28h-1.85v-6.36h.88v5.53h.97v.83Z"/><path class="i" d="M105.61,151.43l-1.54,7.74h-.75l1.55-7.74h.75Z"/><path class="i" d="M109.16,151.93l-.66,6.36h-1.06l-.68-6.36h.91l.31,4.78h.04l.33-4.78h.81Z"/><path class="i" d="M111.39,158.28h-.9l-.07-.89h-.6l-.07,.89h-.73l.66-6.36h.99l.72,6.36Zm-1.05-1.72l-.2-3.2h-.03l-.22,3.2h.45Z"/><path class="i" d="M113.52,158.28h-1.85v-6.36h.88v5.53h.97v.83Z"/><path class="i" d="M114.72,158.28h-.88v-6.36h.88v6.36Z"/><path class="i" d="M117.5,156.97c0,1-.42,1.31-1.15,1.31h-1.14v-6.36h1.12c.77,0,1.17,.34,1.17,1.42v3.62Zm-.88-3.74c0-.38-.1-.48-.32-.48h-.21v4.72h.2c.25,0,.33-.13,.33-.44v-3.79Z"/><path class="i" d="M121.02,157.07c0,.87-.42,1.31-1.09,1.31s-1.12-.44-1.12-1.3v-5.15h.87v5.23c0,.26,.11,.4,.3,.4s.28-.16,.28-.41v-5.22h.76v5.14Z"/><path class="i" d="M123.56,158.28h-.64l-.71-3.69h-.04v3.69h-.72v-6.36h.7l.66,3.25h.03v-3.25h.72v6.36Z"/><path class="i" d="M126.24,152.75h-.74v5.54h-.88v-5.54h-.73v-.82h2.35v.82Z"/><path class="i" d="M127.46,158.28h-.88v-6.36h.88v6.36Z"/><path class="i" d="M129.79,158.28h-1.85v-6.36h.88v5.53h.97v.83Z"/><path class="i" d="M133.19,158.28h-.95l-.31-2.27h-.04l-.31,2.27h-.81l.68-3.2-.68-3.15h.92l.34,2.22h.04l.31-2.22h.81l-.66,3.12,.66,3.24Z"/><path class="i" d="M135.72,158.28h-.95l-.31-2.27h-.04l-.31,2.27h-.81l.68-3.2-.68-3.15h.92l.34,2.22h.04l.31-2.22h.81l-.66,3.12,.66,3.24Z"/><path class="i" d="M138.29,151.43l-1.54,7.74h-.75l1.55-7.74h.75Z"/><path class="i" d="M140.97,158.28h-.95l-.31-2.27h-.04l-.31,2.27h-.81l.68-3.2-.68-3.15h.92l.34,2.22h.04l.31-2.22h.81l-.66,3.12,.66,3.24Z"/><path class="i" d="M143.5,158.28h-.95l-.31-2.27h-.04l-.31,2.27h-.81l.68-3.2-.68-3.15h.92l.34,2.22h.04l.31-2.22h.81l-.66,3.12,.66,3.24Z"/><path class="i" d="M145.34,155.88h-1.51v-.76h1.51v.76Z"/><path class="i" d="M147.04,156.23c-.22,.4-.39,.97-.43,1.24h1.27v.82h-2.14v-.16c0-.66,.08-1.15,.37-1.81,.16-.38,.36-.78,.58-1.22,.21-.41,.39-.97,.39-1.39v-.34c0-.54-.08-.76-.32-.76s-.32,.18-.32,.64c0,.23,.02,.43,.04,.56l-.66,.08c-.02-.15-.05-.37-.05-.74,0-.9,.35-1.33,1-1.33,.75,0,1.1,.56,1.1,1.7s-.3,1.68-.85,2.71Z"/><path class="i" d="M150.38,157.05c0,.98-.43,1.33-1.05,1.33-.66,0-1.09-.37-1.09-1.38v-3.89c0-.9,.44-1.3,1.09-1.3s1.06,.36,1.06,1.28v3.96Zm-.82-4.02c0-.29-.07-.42-.24-.42-.18,0-.25,.12-.25,.43v4.08c0,.31,.06,.46,.25,.46,.17,0,.24-.15,.24-.44v-4.11Z"/><path class="i" d="M153.01,158.28h-.95l-.31-2.27h-.04l-.31,2.27h-.81l.68-3.2-.68-3.15h.92l.34,2.22h.04l.31-2.22h.81l-.66,3.12,.66,3.24Z"/><path class="i" d="M155.53,158.28h-.95l-.31-2.27h-.04l-.31,2.27h-.81l.68-3.2-.68-3.15h.92l.34,2.22h.04l.31-2.22h.81l-.66,3.12,.66,3.24Z"/></g></svg>